
<svg xmlns="http://www.w3.org/2000/svg" width="232" height="16" viewBox="0 0 232 16" fill="none"><path d="M0.719971 14.622L2.37597 14.352V1.24799L0.719971 0.99599V0.599991H6.20997C7.50597 0.599991 8.53797 0.719991 9.30597 0.959991C10.074 1.19999 10.632 1.56599 10.98 2.05799C11.328 2.53799 11.502 3.17399 11.502 3.96599C11.502 5.69399 10.41 6.79799 8.22597 7.27799V7.36799C9.55797 7.54799 10.59 7.94399 11.322 8.55599C12.066 9.16799 12.438 10.02 12.438 11.112C12.438 12.432 11.952 13.41 10.98 14.046C10.02 14.682 8.71797 15 7.07397 15H0.719971V14.622ZM6.35397 7.22399C7.31397 7.22399 8.05197 6.95399 8.56797 6.41399C9.08397 5.87399 9.34197 5.10599 9.34197 4.10999V4.00199C9.34197 2.03399 8.29797 1.04999 6.20997 1.04999H4.35597V7.22399H6.35397ZM7.07397 14.568C8.09397 14.568 8.88597 14.274 9.44997 13.686C10.014 13.086 10.296 12.234 10.296 11.13V10.932C10.296 9.83999 10.014 9.02399 9.44997 8.48399C8.89797 7.94399 8.10597 7.67399 7.07397 7.67399H4.35597V14.568H7.07397Z" fill="black"></path><path d="M17.7321 15V14.622L19.3881 14.352V1.24799L17.7321 0.99599V0.599991H28.5681V4.72199H28.0821L26.6961 1.04999H21.3681V7.52999H23.7081L24.7701 4.91999H25.2381V10.608H24.7701L23.6901 7.96199H21.3681V14.568H27.0201L28.4961 10.608H28.9641V15H17.7321Z" fill="black"></path><path d="M34.3587 15V14.622L36.0327 13.902V1.69799L34.3587 0.99599V0.599991H37.7067L45.4647 11.472V1.69799L43.7907 0.99599V0.599991H47.6247V0.99599L45.9147 1.69799V15H45.4647L36.4827 2.38199V13.902L38.2107 14.622V15H34.3587Z" fill="black"></path><path d="M58.2709 15.36C57.1549 15.36 56.0569 15.042 54.9769 14.406L53.4469 15.18H53.0509V10.554H53.4469L54.9949 13.902C55.9909 14.61 57.1309 14.964 58.4149 14.964C59.4709 14.964 60.3409 14.688 61.0249 14.136C61.7209 13.572 62.0689 12.786 62.0689 11.778C62.0689 11.046 61.8469 10.47 61.4029 10.05C60.9589 9.61799 60.2389 9.27599 59.2429 9.02399L56.2549 8.24999C55.2109 7.97399 54.4249 7.50599 53.8969 6.84599C53.3689 6.17399 53.1049 5.38199 53.1049 4.46999C53.1049 3.64199 53.2669 2.90999 53.5909 2.27399C53.9269 1.62599 54.4129 1.12799 55.0489 0.779991C55.6849 0.41999 56.4409 0.23999 57.3169 0.23999C58.4089 0.23999 59.3869 0.42599 60.2509 0.797991L61.5649 0.23999H61.9609V3.91199H61.5649L60.2689 1.28399C59.3689 0.851991 58.3909 0.635991 57.3349 0.635991C56.2909 0.635991 55.4689 0.905991 54.8689 1.44599C54.2689 1.97399 53.9689 2.67599 53.9689 3.55199C53.9689 4.19999 54.1789 4.70999 54.5989 5.08199C55.0309 5.45399 55.6609 5.74799 56.4889 5.96399L59.7109 6.80999C60.7549 7.07399 61.5289 7.52999 62.0329 8.17799C62.5489 8.81399 62.8069 9.78599 62.8069 11.094C62.8069 12.426 62.3929 13.47 61.5649 14.226C60.7489 14.982 59.6509 15.36 58.2709 15.36Z" fill="black"></path><path d="M75.1912 15.36C73.8832 15.36 72.7132 15.042 71.6812 14.406C70.6492 13.77 69.8452 12.882 69.2692 11.742C68.6932 10.59 68.4052 9.27599 68.4052 7.79999C68.4052 6.32399 68.6932 5.01599 69.2692 3.87599C69.8452 2.72399 70.6492 1.82999 71.6812 1.19399C72.7132 0.55799 73.8832 0.23999 75.1912 0.23999C76.4992 0.23999 77.6692 0.55799 78.7012 1.19399C79.7332 1.82999 80.5372 2.72399 81.1132 3.87599C81.6892 5.01599 81.9772 6.32399 81.9772 7.79999C81.9772 9.27599 81.6892 10.59 81.1132 11.742C80.5372 12.882 79.7332 13.77 78.7012 14.406C77.6692 15.042 76.4992 15.36 75.1912 15.36ZM75.1912 14.946C76.0552 14.946 76.8292 14.718 77.5132 14.262C78.2092 13.806 78.7552 13.146 79.1512 12.282C79.5472 11.406 79.7452 10.374 79.7452 9.18599V6.41399C79.7452 5.22599 79.5472 4.19999 79.1512 3.33599C78.7552 2.45999 78.2092 1.79399 77.5132 1.33799C76.8292 0.88199 76.0552 0.65399 75.1912 0.65399C74.3152 0.65399 73.5352 0.88199 72.8512 1.33799C72.1672 1.79399 71.6272 2.45999 71.2312 3.33599C70.8352 4.19999 70.6372 5.22599 70.6372 6.41399V9.18599C70.6372 10.374 70.8352 11.406 71.2312 12.282C71.6272 13.146 72.1672 13.806 72.8512 14.262C73.5352 14.718 74.3152 14.946 75.1912 14.946Z" fill="black"></path><path d="M87.3287 15V14.622L89.0027 13.902V1.69799L87.3287 0.99599V0.599991H90.6767L98.4347 11.472V1.69799L96.7607 0.99599V0.599991H100.595V0.99599L98.8847 1.69799V15H98.4347L89.4527 2.38199V13.902L91.1807 14.622V15H87.3287Z" fill="black"></path><path d="M105.751 5.00999C106.111 4.79399 106.435 4.49399 106.723 4.10999C107.023 3.71399 107.173 3.31799 107.173 2.92199C107.173 2.81399 107.143 2.72999 107.083 2.66999C107.023 2.59799 106.933 2.56199 106.813 2.56199C106.513 2.56199 106.255 2.45999 106.039 2.25599C105.835 2.03999 105.733 1.78199 105.733 1.48199C105.733 1.18199 105.835 0.935991 106.039 0.74399C106.255 0.539991 106.513 0.437991 106.813 0.437991C107.233 0.437991 107.563 0.593991 107.803 0.90599C108.055 1.20599 108.181 1.60199 108.181 2.09399C108.181 2.76599 107.995 3.37799 107.623 3.92999C107.263 4.46999 106.705 4.92599 105.949 5.29799L105.751 5.00999Z" fill="black"></path><path d="M118.849 15.36C117.733 15.36 116.635 15.042 115.555 14.406L114.025 15.18H113.629V10.554H114.025L115.573 13.902C116.569 14.61 117.709 14.964 118.993 14.964C120.049 14.964 120.919 14.688 121.603 14.136C122.299 13.572 122.647 12.786 122.647 11.778C122.647 11.046 122.425 10.47 121.981 10.05C121.537 9.61799 120.817 9.27599 119.821 9.02399L116.833 8.24999C115.789 7.97399 115.003 7.50599 114.475 6.84599C113.947 6.17399 113.683 5.38199 113.683 4.46999C113.683 3.64199 113.845 2.90999 114.169 2.27399C114.505 1.62599 114.991 1.12799 115.627 0.779991C116.263 0.41999 117.019 0.23999 117.895 0.23999C118.987 0.23999 119.965 0.42599 120.829 0.797991L122.143 0.23999H122.539V3.91199H122.143L120.847 1.28399C119.947 0.851991 118.969 0.635991 117.913 0.635991C116.869 0.635991 116.047 0.905991 115.447 1.44599C114.847 1.97399 114.547 2.67599 114.547 3.55199C114.547 4.19999 114.757 4.70999 115.177 5.08199C115.609 5.45399 116.239 5.74799 117.067 5.96399L120.289 6.80999C121.333 7.07399 122.107 7.52999 122.611 8.17799C123.127 8.81399 123.385 9.78599 123.385 11.094C123.385 12.426 122.971 13.47 122.143 14.226C121.327 14.982 120.229 15.36 118.849 15.36Z" fill="black"></path><path d="M136.638 14.622L138.294 14.352V1.24799L136.638 0.99599V0.599991H142.128C143.424 0.599991 144.456 0.719991 145.224 0.959991C145.992 1.19999 146.55 1.56599 146.898 2.05799C147.246 2.53799 147.42 3.17399 147.42 3.96599C147.42 5.69399 146.328 6.79799 144.144 7.27799V7.36799C145.476 7.54799 146.508 7.94399 147.24 8.55599C147.984 9.16799 148.356 10.02 148.356 11.112C148.356 12.432 147.87 13.41 146.898 14.046C145.938 14.682 144.636 15 142.992 15H136.638V14.622ZM142.272 7.22399C143.232 7.22399 143.97 6.95399 144.486 6.41399C145.002 5.87399 145.26 5.10599 145.26 4.10999V4.00199C145.26 2.03399 144.216 1.04999 142.128 1.04999H140.274V7.22399H142.272ZM142.992 14.568C144.012 14.568 144.804 14.274 145.368 13.686C145.932 13.086 146.214 12.234 146.214 11.13V10.932C146.214 9.83999 145.932 9.02399 145.368 8.48399C144.816 7.94399 144.024 7.67399 142.992 7.67399H140.274V14.568H142.992Z" fill="black"></path><path d="M152.074 15V14.622L153.838 13.902L159.04 0.23999H159.328L164.242 14.352L165.898 14.622V15H160.606V14.622L162.082 14.388L160.552 10.122H155.764L154.306 13.902L155.926 14.622V15H152.074ZM155.908 9.74399H160.426L158.266 3.40799L155.908 9.74399Z" fill="black"></path><path d="M169.836 15V14.622L171.492 14.352V1.24799L169.836 0.99599V0.599991H175.128V0.99599L173.472 1.24799V7.72799L179.322 1.75199L177.36 0.99599V0.599991H181.518V0.99599L180.042 1.75199L175.956 5.85599L181.716 14.352L182.94 14.622V15H177.63V14.622L179.268 14.37L174.552 7.25999L173.472 8.35799V14.352L175.128 14.622V15H169.836Z" fill="black"></path><path d="M186.725 15V14.622L188.381 14.352V1.24799L186.725 0.99599V0.599991H197.561V4.72199H197.075L195.689 1.04999H190.361V7.52999H192.701L193.763 4.91999H194.231V10.608H193.763L192.683 7.96199H190.361V14.568H196.013L197.489 10.608H197.957V15H186.725Z" fill="black"></path><path d="M213.755 15.18C213.083 15.18 212.579 15.018 212.243 14.694C211.907 14.37 211.679 13.818 211.559 13.038L211.217 10.626C211.097 9.80999 210.815 9.17399 210.371 8.71799C209.939 8.24999 209.261 8.01599 208.337 8.01599H206.933V14.352L208.589 14.622V15H203.297V14.622L204.953 14.352V1.24799L203.297 0.99599V0.599991H208.337C210.293 0.599991 211.709 0.905991 212.585 1.51799C213.461 2.12999 213.899 3.05999 213.899 4.30799C213.899 6.37199 212.651 7.56599 210.155 7.88999V7.99799C211.079 8.12999 211.817 8.45999 212.369 8.98799C212.933 9.51599 213.287 10.218 213.431 11.094L213.665 12.642C213.761 13.314 213.869 13.77 213.989 14.01C214.121 14.25 214.319 14.37 214.583 14.37C214.763 14.37 214.955 14.316 215.159 14.208C215.363 14.088 215.555 13.938 215.735 13.758L216.041 14.082C215.693 14.478 215.333 14.76 214.961 14.928C214.589 15.096 214.187 15.18 213.755 15.18ZM208.949 7.58399C209.825 7.58399 210.503 7.31999 210.983 6.79199C211.475 6.25199 211.721 5.45999 211.721 4.41599V4.03799C211.721 2.04599 210.593 1.04999 208.337 1.04999H206.933V7.58399H208.949Z" fill="black"></path><path d="M222.52 15V14.622L224.194 14.352V8.87999L219.82 1.24799L218.398 0.99599V0.599991H223.816V0.99599L222.142 1.24799L225.922 7.78199L229.396 1.85999L227.236 0.99599V0.599991H231.268V0.99599L229.882 1.87799L226.138 8.28599V14.352L227.812 14.622V15H222.52Z" fill="black"></path></svg>